<?xml version="1.0" standalone="no"?>
<!DOCTYPE svg PUBLIC "-//W3C//DTD SVG 20010904//EN"
 "http://www.w3.org/TR/2001/REC-SVG-20010904/DTD/svg10.dtd">
<svg version="1.0" xmlns="http://www.w3.org/2000/svg"
 width="517.000000pt" height="479.000000pt" viewBox="0 0 517.000000 479.000000"
 preserveAspectRatio="xMidYMid meet">

<g transform="translate(0.000000,479.000000) scale(0.100000,-0.100000)"
fill="#000000" stroke="none">
<path d="M1600 4547 c-60 -32 -69 -42 -81 -89 -6 -26 -15 -51 -20 -54 -5 -3
-9 -14 -9 -25 0 -14 7 -19 28 -19 25 0 31 7 52 58 12 31 29 64 36 72 17 20 36
70 26 70 -4 0 -18 -6 -32 -13z"/>
<path d="M3450 4544 c0 -3 15 -33 34 -67 18 -34 36 -74 40 -89 5 -23 12 -28
37 -28 35 0 35 0 3 96 -13 39 -25 55 -55 72 -37 22 -59 28 -59 16z"/>
<path d="M1237 4392 c-65 -38 -78 -49 -73 -66 17 -67 26 -118 32 -168 l5 -58
69 0 c61 0 69 2 84 25 9 14 14 30 11 35 -3 5 10 27 30 48 59 66 44 79 -27 24
-63 -48 -113 -82 -122 -82 -8 0 46 184 65 223 35 67 15 72 -74 19z"/>
<path d="M3750 4420 c0 -6 11 -33 25 -59 13 -27 32 -81 40 -120 9 -39 23 -78
32 -86 29 -30 -5 -14 -78 36 -41 28 -81 58 -91 66 -31 28 -32 -7 0 -40 17 -18
37 -50 44 -72 l13 -40 72 -3 71 -3 6 58 c4 32 11 78 18 103 17 67 15 91 -6
104 -11 6 -40 23 -65 39 -46 28 -81 35 -81 17z"/>
<path d="M1021 4177 c-6 -8 -23 -18 -36 -21 -15 -4 -27 -16 -31 -31 -8 -31 3
-47 27 -40 17 6 19 1 19 -35 0 -45 6 -45 63 3 l28 23 -29 58 c-24 48 -30 55
-41 43z"/>
<path d="M4018 4134 l-26 -53 41 -38 42 -38 3 44 c3 40 5 42 28 37 20 -5 24
-3 24 17 0 23 -27 57 -45 57 -5 0 -16 6 -24 14 -14 11 -19 6 -43 -40z"/>
<path d="M1026 4004 c-19 -19 -49 -85 -41 -92 6 -6 117 16 126 26 12 13 19 47
11 58 -13 21 -78 26 -96 8z"/>
<path d="M3994 4013 c-35 -4 -46 -25 -33 -60 5 -15 22 -24 59 -32 55 -12 80
-14 80 -6 0 20 -36 87 -51 95 -10 6 -19 9 -21 8 -2 0 -17 -3 -34 -5z"/>
<path d="M795 3881 c-6 -6 -19 -12 -30 -14 -44 -6 -48 -15 -40 -106 4 -47 9
-89 11 -93 11 -18 34 9 59 71 22 56 25 75 18 110 -5 29 -11 39 -18 32z"/>
<path d="M4268 3883 c-23 -47 41 -237 72 -218 12 7 24 175 14 185 -5 5 -19 11
-31 13 -11 1 -28 9 -36 15 -8 7 -17 9 -19 5z"/>
<path d="M910 3814 c-50 -27 -100 -76 -100 -100 0 -12 7 -14 33 -9 62 14 76
24 98 72 13 26 25 51 27 56 6 11 -9 6 -58 -19z"/>
<path d="M4110 3834 c0 -3 9 -17 20 -31 11 -14 20 -34 20 -44 0 -21 39 -44 93
-54 34 -7 36 -6 30 12 -16 39 -40 62 -96 92 -60 32 -67 35 -67 25z"/>
<path d="M533 3668 c-19 -25 -83 -146 -83 -158 0 -6 17 -32 39 -58 21 -26 51
-68 66 -94 15 -27 31 -48 36 -48 19 0 21 57 4 129 -10 42 -21 112 -24 155 -6
77 -18 100 -38 74z"/>
<path d="M4522 3659 c-7 -10 -12 -49 -12 -87 0 -37 -4 -72 -9 -77 -4 -6 -14
-38 -21 -72 -22 -106 9 -153 46 -70 10 23 38 66 62 94 23 29 42 58 42 64 0 13
-78 156 -89 163 -4 3 -12 -4 -19 -15z"/>
<path d="M705 3463 c-16 -37 -47 -95 -67 -129 -40 -66 -44 -80 -29 -103 8 -12
18 -8 54 22 25 20 52 37 60 37 8 0 18 7 21 16 10 26 7 72 -5 80 -11 6 -9 40 6
112 12 53 -8 36 -40 -35z"/>
<path d="M4339 3469 c13 -48 13 -63 3 -79 -16 -26 -5 -100 15 -100 8 0 35 -17
60 -37 36 -30 46 -34 54 -22 14 23 11 42 -17 83 -14 21 -45 77 -68 125 -49
102 -69 115 -47 30z"/>
<path d="M2739 3372 c-64 -22 -135 -67 -173 -113 -164 -195 -98 -513 130 -625
80 -40 211 -46 294 -15 91 34 163 98 204 183 104 212 22 461 -182 556 -75 35
-190 41 -273 14z m176 -83 c19 -18 20 -35 23 -284 3 -222 1 -268 -12 -294 -28
-54 -114 -49 -143 9 -18 35 -18 514 0 550 26 51 90 60 132 19z"/>
<path d="M1097 3373 c-4 -3 -7 -177 -7 -385 l0 -379 38 3 37 3 5 204 5 205
160 -134 c88 -73 199 -166 246 -207 80 -68 89 -73 133 -73 l46 0 0 380 0 380
-35 0 -35 0 0 -205 c0 -113 -2 -205 -5 -205 -3 0 -110 87 -238 193 -128 106
-243 201 -257 210 -24 17 -81 23 -93 10z"/>
<path d="M3927 3373 c-4 -3 -7 -98 -7 -210 0 -111 -2 -203 -5 -203 -3 0 -116
92 -252 205 -246 204 -247 205 -295 205 l-48 0 0 -380 0 -380 40 0 40 0 0 205
c0 113 2 205 5 205 5 0 197 -160 406 -337 80 -68 89 -73 133 -73 l46 0 0 379
0 379 -22 6 c-29 7 -33 7 -41 -1z"/>
<path d="M1828 3338 c11 -18 59 -96 106 -172 l86 -140 0 -208 0 -208 140 0
140 0 0 221 0 221 96 146 c53 80 98 151 101 159 4 10 -6 13 -39 13 l-44 0 -69
-105 c-38 -58 -73 -104 -78 -102 -5 1 -37 47 -71 102 l-63 100 -163 3 -162 3
20 -33z"/>
<path d="M4660 3250 c-14 -16 -32 -30 -40 -31 -8 0 -30 -18 -49 -40 l-34 -39
27 -59 c14 -32 26 -64 26 -71 0 -21 16 -7 74 65 58 72 73 124 42 142 -8 4 -16
21 -18 36 l-3 28 -25 -31z"/>
<path d="M390 3246 c0 -13 -7 -26 -15 -30 -33 -12 -17 -65 43 -142 31 -40 59
-73 62 -74 3 0 18 31 34 70 l28 70 -28 33 c-16 19 -46 44 -66 56 -21 12 -38
26 -38 31 0 6 -4 10 -10 10 -5 0 -10 -11 -10 -24z"/>
<path d="M574 3065 c-9 -14 -23 -25 -31 -25 -8 0 -21 -17 -30 -37 -14 -35 -14
-40 3 -70 20 -39 30 -41 39 -10 4 12 21 43 37 70 22 34 28 54 24 72 -8 32 -21
32 -42 0z"/>
<path d="M4463 3064 c-3 -9 4 -32 16 -52 12 -21 30 -54 38 -74 9 -21 20 -38
25 -38 4 0 16 16 25 35 16 33 16 37 0 70 -9 19 -23 35 -32 35 -8 0 -20 9 -27
20 -15 24 -36 26 -45 4z"/>
<path d="M595 2901 c-27 -16 -30 -23 -30 -69 1 -29 5 -56 10 -61 6 -6 27 10
54 41 39 44 43 53 35 76 -12 33 -30 36 -69 13z"/>
<path d="M4424 2895 c-9 -13 -14 -29 -12 -34 7 -19 90 -102 96 -96 4 3 7 31 7
62 0 52 -2 57 -30 74 -40 23 -42 23 -61 -6z"/>
<path d="M325 2833 c6 -72 1 -85 -24 -60 -11 10 -12 5 -6 -28 10 -55 33 -97
52 -93 11 2 22 27 34 78 19 82 19 82 -36 145 l-26 30 6 -72z"/>
<path d="M4713 2847 l-32 -43 16 -64 c9 -36 17 -71 19 -77 7 -27 36 -11 54 30
26 56 26 81 0 74 -23 -6 -25 9 -11 81 11 55 -4 55 -46 -1z"/>
<path d="M4467 2619 c-6 -70 -5 -73 26 -110 43 -52 57 -50 57 7 0 34 -9 61
-36 107 -20 34 -37 63 -39 65 -1 1 -5 -30 -8 -69z"/>
<path d="M587 2663 c-4 -10 -18 -38 -32 -63 -25 -44 -32 -103 -16 -128 6 -9
18 -1 45 32 36 45 37 46 30 111 -7 64 -16 81 -27 48z"/>
<path d="M430 2615 c0 -8 -9 -24 -20 -35 -11 -11 -20 -29 -20 -39 0 -23 96
-131 116 -131 32 0 9 115 -36 182 -26 40 -40 48 -40 23z"/>
<path d="M4630 2621 c0 -5 -11 -22 -24 -38 -22 -26 -46 -107 -46 -153 0 -34
26 -22 79 36 55 61 62 83 31 114 -11 11 -20 27 -20 35 0 8 -4 15 -10 15 -5 0
-10 -4 -10 -9z"/>
<path d="M3475 2456 c-37 -17 -80 -62 -94 -99 -25 -66 -4 -164 46 -209 49 -45
136 -60 196 -34 67 28 107 93 107 171 0 55 -14 92 -48 129 -51 54 -140 72
-207 42z m103 -28 c8 -8 12 -55 12 -144 0 -147 -8 -167 -55 -146 -25 11 -25
13 -25 145 0 136 5 157 40 157 9 0 21 -5 28 -12z"/>
<path d="M3840 2463 c-39 -15 -60 -47 -60 -88 0 -58 30 -88 116 -115 87 -26
114 -44 114 -74 0 -36 -26 -50 -90 -51 -43 0 -63 5 -79 19 -21 19 -29 66 -11
66 22 0 8 30 -17 36 -44 11 -69 -47 -42 -98 27 -50 160 -74 235 -43 58 24 84
61 84 120 0 75 -42 115 -152 145 -60 16 -78 34 -48 50 25 13 73 5 91 -16 14
-18 33 -18 48 -1 8 11 6 18 -10 33 -16 14 -39 19 -92 21 -40 1 -79 0 -87 -4z"/>
<path d="M1084 2294 c-43 -91 -80 -170 -82 -175 -8 -22 36 -7 46 16 11 23 17
25 82 25 63 0 71 -2 86 -25 15 -23 23 -25 86 -25 38 0 68 4 66 9 -1 5 -39 83
-82 175 -67 139 -83 166 -101 166 -18 0 -35 -27 -101 -166z m96 -91 c0 -9 -16
-13 -50 -13 -27 0 -50 2 -50 5 0 3 12 29 26 57 l26 52 24 -44 c13 -25 23 -51
24 -57z"/>
<path d="M1400 2285 l0 -175 140 0 c118 0 140 2 140 15 0 12 -15 15 -75 15
l-75 0 0 160 0 160 -65 0 -65 0 0 -175z"/>
<path d="M1710 2285 l0 -175 65 0 65 0 0 175 0 175 -65 0 -65 0 0 -175z"/>
<path d="M1900 2285 c0 -168 1 -175 20 -175 19 0 20 7 20 92 l0 92 48 -47 49
-48 59 90 c32 50 62 91 67 91 4 0 7 -61 7 -135 l0 -135 65 0 65 0 0 175 0 175
-69 0 -69 0 -38 -60 c-22 -33 -41 -60 -44 -60 -3 0 -32 27 -65 60 -44 45 -66
60 -87 60 l-28 0 0 -175z"/>
<path d="M2358 2325 c-2 -74 -2 -153 0 -175 l4 -40 139 0 c117 0 139 2 139 15
0 12 -15 15 -75 15 l-75 0 0 110 0 110 75 0 c68 0 75 2 75 20 0 18 -7 20 -75
20 -60 0 -75 3 -75 15 0 12 15 15 76 15 56 0 75 3 72 13 -3 8 -43 13 -140 15
l-136 3 -4 -136z"/>
<path d="M2680 2285 c0 -167 1 -175 20 -175 18 0 20 8 22 94 l3 95 113 -95
c75 -62 122 -94 138 -94 l24 0 0 175 c0 147 -2 175 -15 175 -11 0 -15 -20 -17
-96 l-3 -96 -116 96 c-82 67 -125 96 -143 96 l-26 0 0 -175z"/>
<path d="M3040 2445 c0 -11 12 -15 50 -15 l50 0 0 -160 0 -160 65 0 65 0 0
160 0 160 50 0 c38 0 50 4 50 15 0 13 -25 15 -165 15 -140 0 -165 -2 -165 -15z"/>
<path d="M326 2178 c3 -57 10 -107 14 -111 4 -4 35 -15 69 -22 34 -8 84 -26
111 -40 61 -31 70 -31 70 -2 0 17 -24 47 -77 98 -43 41 -94 98 -113 127 -25
37 -42 52 -58 52 -23 0 -23 0 -16 -102z"/>
<path d="M4709 2263 c-8 -10 -28 -37 -43 -60 -15 -23 -58 -68 -96 -100 -45
-39 -70 -68 -74 -87 -3 -16 -4 -31 -1 -34 3 -3 35 9 72 25 38 17 92 36 121 43
28 7 54 15 56 19 2 3 7 52 11 109 6 96 5 102 -13 102 -10 0 -25 -8 -33 -17z"/>
<path d="M598 2224 c-3 -21 -3 -90 0 -152 4 -105 7 -115 28 -129 13 -8 27 -12
32 -9 5 3 18 33 28 66 11 33 22 60 27 60 17 0 4 25 -32 60 -22 22 -47 60 -59
91 l-19 53 -5 -40z"/>
<path d="M4461 2215 c-31 -80 -44 -103 -56 -98 -17 6 -53 -46 -38 -55 6 -4 19
-33 29 -66 20 -64 35 -77 63 -52 15 14 19 37 23 128 3 62 2 126 -2 142 l-7 31
-12 -30z"/>
<path d="M1750 1903 c-114 -25 -298 -81 -477 -145 l-112 -40 19 -38 c11 -21
29 -74 41 -117 21 -77 46 -133 60 -133 19 0 39 14 39 27 0 10 6 13 16 9 9 -3
30 2 48 13 55 34 727 241 782 241 7 0 17 6 21 14 4 8 17 16 28 19 18 4 17 5
-3 6 -13 0 -20 5 -17 11 3 5 -7 12 -22 16 -37 9 -156 71 -181 95 -11 10 -36
21 -56 24 -20 4 -36 10 -36 14 0 12 -47 8 -150 -16z"/>
<path d="M430 1833 c0 -2 5 -13 11 -24 7 -14 7 -24 0 -33 -17 -20 19 -80 49
-84 14 -2 58 -12 99 -23 40 -11 75 -18 77 -16 2 2 -4 40 -13 84 l-17 82 -66 6
c-36 3 -82 7 -102 9 -21 2 -38 2 -38 -1z"/>
<path d="M4627 1834 c-3 -4 -45 -8 -92 -9 -48 -2 -89 -6 -92 -8 -2 -3 -6 -22
-9 -43 -3 -22 -9 -55 -14 -74 -14 -50 -13 -53 18 -45 15 5 60 15 101 25 67 14
76 19 92 50 13 24 15 37 8 46 -7 9 -7 19 0 33 6 11 11 22 11 25 0 8 -15 8 -23
0z"/>
<path d="M2208 1733 c7 -3 16 -2 19 1 4 3 -2 6 -13 5 -11 0 -14 -3 -6 -6z"/>
<path d="M680 1691 c0 -11 5 -23 10 -26 6 -3 10 3 10 14 0 11 -4 23 -10 26 -5
3 -10 -3 -10 -14z"/>
<path d="M4380 1680 c0 -11 5 -20 10 -20 6 0 10 9 10 20 0 11 -4 20 -10 20 -5
0 -10 -9 -10 -20z"/>
<path d="M2305 1674 c-11 -3 -58 -12 -105 -20 -129 -24 -292 -69 -420 -115
-155 -56 -353 -142 -356 -154 -2 -5 18 -26 44 -45 25 -19 80 -67 122 -106 41
-39 86 -75 100 -79 14 -4 57 -24 97 -45 l72 -39 103 57 c214 119 435 209 688
282 74 21 127 39 117 39 -17 1 -19 21 -3 33 5 3 -12 9 -37 13 -26 4 -50 11
-53 16 -3 5 -12 9 -20 9 -8 0 -38 16 -67 35 -28 19 -59 35 -67 35 -19 1 -60
34 -60 49 0 10 -30 16 -54 12 -6 -1 -21 1 -35 5 -24 6 -25 7 -6 14 17 7 15 9
-10 8 -16 0 -39 -2 -50 -4z"/>
<path d="M1070 1560 c0 -6 9 -28 20 -50 11 -21 31 -76 44 -121 16 -57 29 -85
42 -90 39 -16 44 -11 44 45 0 47 -4 59 -35 96 -20 24 -50 62 -67 86 -30 43
-48 55 -48 34z"/>
<path d="M3995 1562 c-6 -4 -26 -27 -45 -52 -18 -25 -45 -55 -59 -68 -21 -19
-26 -34 -29 -87 -4 -56 -2 -65 12 -65 26 0 56 19 56 35 0 19 48 162 67 198 15
31 14 51 -2 39z"/>
<path d="M828 1523 c-23 -6 -23 -4 9 -93 35 -100 38 -103 90 -96 24 3 78 1
119 -5 42 -6 78 -8 81 -5 12 11 -27 54 -64 70 -83 38 -119 59 -143 81 -38 34
-73 52 -92 48z"/>
<path d="M4177 1488 c-24 -21 -77 -54 -118 -74 -83 -41 -109 -60 -109 -82 0
-12 8 -13 43 -7 23 4 78 9 123 10 44 1 86 5 92 9 10 6 62 153 62 175 0 21 -52
3 -93 -31z"/>
<path d="M600 1433 c19 -20 41 -43 48 -51 16 -18 15 -44 -2 -40 -14 3 -16 0
-16 -21 0 -4 19 -21 42 -36 36 -24 46 -26 77 -18 20 5 35 14 33 21 -1 7 14 20
33 28 19 8 35 17 35 21 0 3 -16 26 -36 49 -29 36 -42 44 -68 44 -19 0 -51 6
-72 13 -22 8 -55 17 -74 21 l-34 6 34 -37z"/>
<path d="M4410 1444 c-25 -7 -59 -14 -77 -14 -25 0 -39 -9 -68 -45 -40 -49
-39 -60 5 -70 20 -4 30 -13 30 -25 0 -14 10 -21 35 -26 31 -5 41 -1 80 31 42
34 53 61 20 48 -25 -9 -17 22 13 54 56 61 57 63 31 62 -13 0 -44 -7 -69 -15z"/>
<path d="M2915 1369 c-4 -6 -13 -8 -20 -5 -29 11 -319 -78 -506 -155 -188 -77
-389 -171 -389 -181 0 -26 35 -70 73 -93 24 -14 46 -25 50 -25 3 0 7 12 9 28
l3 27 100 -1 c108 0 181 -14 260 -49 49 -21 51 -21 80 -3 45 27 120 46 228 58
115 13 136 9 144 -31 3 -16 10 -29 16 -29 23 0 79 55 102 101 29 56 55 65 55
19 0 -16 2 -30 5 -30 3 0 37 24 76 53 38 30 90 64 114 76 43 22 63 40 29 27
-14 -5 -15 -4 -4 9 11 13 10 14 -2 10 -8 -3 -39 7 -69 23 -30 16 -88 46 -129
67 -41 20 -86 44 -100 52 -14 8 -33 17 -42 20 -10 3 -18 10 -18 15 0 5 -9 6
-20 3 -14 -5 -20 -2 -20 9 0 18 -16 21 -25 5z"/>
<path d="M1160 1155 c-19 -7 -56 -14 -83 -14 l-47 -1 16 -25 c8 -13 13 -28 10
-34 -3 -5 3 -19 13 -32 17 -22 26 -23 120 -24 55 0 101 4 101 9 0 4 -14 37
-31 72 -32 69 -39 72 -99 49z"/>
<path d="M1317 1163 c-2 -5 -3 -32 -2 -62 1 -60 26 -91 74 -91 49 -1 114 -38
204 -115 34 -30 20 -41 -70 -54 -49 -7 -119 -14 -158 -14 -38 -1 -72 -6 -75
-12 -3 -5 19 -25 48 -44 34 -22 49 -38 43 -44 -17 -17 -77 2 -135 44 -34 24
-65 39 -78 37 -27 -4 -36 -28 -11 -28 49 -1 237 -104 250 -137 3 -8 -5 -25
-17 -38 -12 -13 -20 -30 -17 -37 4 -13 129 -58 158 -58 8 1 -12 12 -45 25 -82
35 -91 43 -69 68 37 42 116 97 151 106 20 6 68 11 105 12 65 2 70 0 103 -31
18 -19 34 -36 34 -39 -1 -13 -90 -68 -150 -93 -36 -15 -63 -28 -60 -28 103
-28 125 -37 122 -53 -2 -14 5 -17 37 -17 50 0 58 -12 30 -50 -13 -16 -20 -32
-17 -35 13 -13 187 -24 248 -16 59 8 54 9 -65 10 -71 1 -135 5 -142 9 -17 11
6 58 64 128 55 66 141 119 211 130 l42 7 -41 31 c-23 17 -71 55 -105 84 -42
35 -64 48 -64 38 0 -9 -8 -16 -19 -16 -11 0 -21 -5 -23 -12 -3 -9 -17 -8 -54
4 -27 9 -51 14 -53 12 -3 -2 7 -17 21 -32 22 -24 28 -62 9 -62 -13 0 -78 54
-108 89 -31 38 -107 164 -154 259 -17 34 -37 62 -44 62 -6 0 -39 14 -71 30
-64 34 -100 44 -107 33z"/>
<path d="M3685 1145 c-22 -14 -56 -30 -76 -35 -31 -9 -40 -18 -63 -70 -15 -32
-31 -62 -36 -65 -5 -3 -27 -41 -50 -83 -22 -42 -60 -99 -85 -126 -46 -50 -54
-63 -34 -50 7 4 44 6 83 5 88 -2 152 -31 215 -95 25 -25 43 -47 40 -49 -2 -2
-33 -18 -69 -36 -69 -34 -45 -34 45 0 30 11 55 27 55 34 0 7 -14 25 -32 39
l-32 25 55 24 c30 13 71 38 90 55 28 24 52 34 107 43 76 13 88 23 46 39 -39
15 -47 13 -110 -30 -63 -43 -104 -56 -129 -42 -13 7 -5 16 42 47 50 33 55 39
38 46 -11 4 -38 6 -60 3 -22 -3 -69 2 -105 10 -36 9 -84 16 -107 16 -35 0 -43
3 -43 19 0 27 115 108 180 127 30 9 66 21 80 28 31 15 53 55 39 73 -6 6 -8 22
-4 34 5 14 2 25 -6 30 -21 13 -30 11 -74 -16z"/>
<path d="M3820 1107 c-17 -37 -30 -70 -30 -74 0 -5 45 -8 101 -8 92 0 103 2
119 23 10 12 16 31 13 42 -3 12 1 22 11 26 31 12 15 24 -32 24 -26 0 -52 4
-57 9 -6 6 -29 13 -53 17 l-42 7 -30 -66z"/>
<path d="M842 1102 c-21 -6 -19 -9 23 -32 25 -13 45 -28 45 -31 0 -4 16 -17
35 -29 25 -15 39 -19 48 -12 7 6 23 12 36 14 39 5 33 20 -22 61 -43 30 -60 37
-97 36 -25 -1 -55 -4 -68 -7z"/>
<path d="M4073 1072 c-56 -39 -61 -55 -22 -60 13 -2 30 -9 37 -14 9 -8 22 -3
50 19 20 16 56 40 79 53 23 13 40 27 37 32 -3 4 -33 8 -67 8 -55 -1 -68 -5
-114 -38z"/>
<path d="M1887 975 c40 -40 63 -71 60 -79 -5 -12 7 -14 57 -14 l64 1 -35 24
c-40 27 -41 27 -45 7 -2 -12 -20 0 -64 43 -33 33 -70 65 -81 71 -11 6 9 -18
44 -53z"/>
<path d="M3167 970 c-36 -33 -68 -60 -71 -60 -3 0 -6 7 -6 16 0 9 -6 14 -12
11 -7 -2 -12 -10 -10 -16 1 -6 -1 -10 -5 -9 -5 2 -18 -4 -31 -13 -22 -16 -20
-17 50 -17 41 -1 67 3 59 7 -19 12 -3 37 58 94 27 26 46 47 42 47 -4 0 -38
-27 -74 -60z"/>
<path d="M1940 1000 c0 -5 5 -10 10 -10 6 0 10 5 10 10 0 6 -4 10 -10 10 -5 0
-10 -4 -10 -10z"/>
<path d="M2850 933 c0 -5 11 -13 24 -19 21 -10 24 -9 23 7 -1 13 -9 19 -24 19
-13 0 -23 -3 -23 -7z"/>
<path d="M2180 917 c0 -8 10 -22 23 -33 12 -10 16 -12 10 -4 -7 8 -13 22 -13
32 0 10 -4 18 -10 18 -5 0 -10 -6 -10 -13z"/>
<path d="M1860 870 c4 -8 18 -24 30 -35 18 -16 20 -16 14 -2 -3 9 -10 17 -16
17 -5 0 -7 9 -3 19 5 15 1 19 -14 18 -14 -1 -17 -5 -11 -17z"/>
<path d="M2875 880 c-3 -5 -1 -10 4 -10 6 0 11 5 11 10 0 6 -2 10 -4 10 -3 0
-8 -4 -11 -10z"/>
<path d="M3196 866 c-6 -24 -115 -132 -164 -163 -15 -9 -39 -27 -54 -39 l-27
-22 42 -6 c96 -16 219 -113 273 -218 22 -43 10 -48 -124 -48 -82 0 -111 -3
-106 -11 5 -8 40 -10 118 -6 159 9 183 20 136 62 -34 30 -25 45 25 45 38 0 45
3 43 17 -2 13 10 21 54 33 31 8 59 18 63 21 3 4 -16 14 -42 23 -53 18 -163 82
-163 96 0 5 12 18 26 29 l27 21 -27 0 c-31 0 -35 24 -9 52 22 24 16 28 -32 19
-93 -15 -117 11 -61 68 39 40 44 51 22 51 -8 0 -17 -11 -20 -24z"/>
<path d="M2850 840 c0 -5 5 -10 11 -10 5 0 7 5 4 10 -3 6 -8 10 -11 10 -2 0
-4 -4 -4 -10z"/>
<path d="M2448 707 c7 -8 30 -27 52 -42 l39 -27 34 21 c18 11 42 30 52 41 18
20 18 20 -16 13 -44 -10 -107 -10 -143 0 -25 7 -28 6 -18 -6z"/>
<path d="M2351 682 c-11 -11 -29 -13 -85 -9 l-71 6 30 -22 c16 -12 50 -41 74
-64 l44 -42 -36 10 c-35 9 -36 9 -116 -72 l-82 -81 58 7 c137 15 164 25 228
84 34 31 80 65 103 76 43 20 52 33 30 39 -61 19 -115 44 -137 62 -23 19 -28
20 -40 6z"/>
<path d="M2670 663 c-30 -18 -70 -36 -87 -39 -40 -8 -42 -28 -5 -46 55 -28 75
-44 124 -95 28 -29 54 -50 59 -48 4 3 47 -1 95 -10 47 -8 93 -15 102 -15 8 0
-21 34 -64 75 -51 48 -87 75 -101 75 -13 0 -23 4 -23 9 0 11 37 50 80 83 l35
27 -66 -6 c-49 -4 -69 -2 -80 9 -12 12 -21 10 -69 -19z"/>
<path d="M2512 437 c-8 -10 -2 -12 28 -12 30 0 36 2 28 12 -6 7 -18 13 -28 13
-10 0 -22 -6 -28 -13z"/>
<path d="M2300 411 c-7 -11 -16 -19 -19 -18 -6 2 -11 -7 -11 -22 0 -13 56 -33
77 -28 13 3 11 5 -7 6 -14 1 -32 6 -40 11 -12 8 -11 13 8 39 12 17 19 31 15
31 -5 0 -15 -9 -23 -19z"/>
<path d="M2777 401 c3 -12 10 -21 15 -21 13 0 6 32 -9 37 -7 3 -9 -3 -6 -16z"/>
<path d="M2446 341 c-18 -8 -24 -16 -17 -20 13 -8 -8 -30 -49 -51 -14 -7 -54
-33 -89 -58 l-65 -46 53 -12 c29 -6 58 -17 64 -23 18 -18 43 -13 54 12 18 38
94 117 113 117 10 0 52 -31 93 -70 70 -65 78 -70 120 -70 25 0 49 5 52 10 3 6
15 10 26 10 10 0 19 4 19 8 0 9 -165 119 -219 147 l-34 17 27 23 26 23 -73 -2
c-40 0 -85 -7 -101 -15z"/>
<path d="M2750 350 c-13 -8 -13 -10 2 -10 9 0 20 5 23 10 8 13 -5 13 -25 0z"/>
</g>
</svg>
